<?xml version="1.0" encoding="UTF-8" standalone="no"?>
<svg
   xmlns:osb="http://www.openswatchbook.org/uri/2009/osb"
   xmlns:dc="http://purl.org/dc/elements/1.1/"
   xmlns:cc="http://creativecommons.org/ns#"
   xmlns:rdf="http://www.w3.org/1999/02/22-rdf-syntax-ns#"
   xmlns:svg="http://www.w3.org/2000/svg"
   xmlns="http://www.w3.org/2000/svg"
   xmlns:xlink="http://www.w3.org/1999/xlink"
   xmlns:sodipodi="http://sodipodi.sourceforge.net/DTD/sodipodi-0.dtd"
   xmlns:inkscape="http://www.inkscape.org/namespaces/inkscape"
   width="60mm"
   height="60mm"
   viewBox="0 0 60 60"
   version="1.1"
   id="svg1728"
   inkscape:version="1.0 (4035a4fb49, 2020-05-01)"
   sodipodi:docname="inkwell7.svg">
  <defs
     id="defs1722">
    <linearGradient
       id="linearGradient917"
       inkscape:collect="always">
      <stop
         id="stop913"
         offset="0"
         style="stop-color:#4c00c2;stop-opacity:1" />
      <stop
         id="stop915"
         offset="1"
         style="stop-color:#260062;stop-opacity:1" />
    </linearGradient>
    <linearGradient
       id="linearGradient4685"
       inkscape:collect="always">
      <stop
         id="stop4681"
         offset="0"
         style="stop-color:#14009e;stop-opacity:1" />
      <stop
         id="stop4683"
         offset="1"
         style="stop-color:#842eb1;stop-opacity:1" />
    </linearGradient>
    <linearGradient
       id="linearGradient4665"
       osb:paint="solid">
      <stop
         style="stop-color:#260062;stop-opacity:1;"
         offset="0"
         id="stop4663" />
    </linearGradient>
    <linearGradient
       inkscape:collect="always"
       id="linearGradient2505">
      <stop
         style="stop-color:#14009e;stop-opacity:1"
         offset="0"
         id="stop2501" />
      <stop
         style="stop-color:#842eb1;stop-opacity:1"
         offset="1"
         id="stop2503" />
    </linearGradient>
    <filter
       inkscape:collect="always"
       style="color-interpolation-filters:sRGB"
       id="filter2383"
       x="-0.0001965699"
       width="1.0003932"
       y="-0.00015415862"
       height="1.0003083">
      <feGaussianBlur
         inkscape:collect="always"
         stdDeviation="0.010995469"
         id="feGaussianBlur2385" />
    </filter>
    <linearGradient
       inkscape:collect="always"
       xlink:href="#linearGradient2505"
       id="linearGradient2507"
       x1="142.60265"
       y1="202.79785"
       x2="223.07971"
       y2="234.91486"
       gradientUnits="userSpaceOnUse"
       gradientTransform="matrix(0.26458333,0,0,0.25328643,-25.830585,-7.9716551)" />
    <linearGradient
       inkscape:collect="always"
       xlink:href="#linearGradient4685"
       id="linearGradient4679"
       x1="142.60265"
       y1="202.79785"
       x2="223.07971"
       y2="234.91486"
       gradientUnits="userSpaceOnUse"
       gradientTransform="matrix(0.26458333,0,0,0.25328643,-25.830585,-7.9716551)" />
    <linearGradient
       gradientUnits="userSpaceOnUse"
       y2="17.520203"
       x2="84.584785"
       y1="12.843575"
       x1="47.830605"
       id="linearGradient919"
       xlink:href="#linearGradient917"
       inkscape:collect="always" />
    <linearGradient
       gradientUnits="userSpaceOnUse"
       y2="17.520203"
       x2="84.584785"
       y1="12.843575"
       x1="47.830605"
       id="linearGradient927"
       xlink:href="#linearGradient917"
       inkscape:collect="always" />
  </defs>
  <sodipodi:namedview
     id="base"
     pagecolor="#ffffff"
     bordercolor="#666666"
     borderopacity="1.0"
     inkscape:pageopacity="0.0"
     inkscape:pageshadow="2"
     inkscape:zoom="0.89303128"
     inkscape:cx="490.81217"
     inkscape:cy="83.630645"
     inkscape:document-units="mm"
     inkscape:current-layer="layer8"
     inkscape:document-rotation="0"
     showgrid="false"
     inkscape:object-paths="false"
     inkscape:object-nodes="true"
     inkscape:window-width="1920"
     inkscape:window-height="1001"
     inkscape:window-x="-9"
     inkscape:window-y="-9"
     inkscape:window-maximized="1"
     inkscape:snap-others="false" />
  <metadata
     id="metadata1725">
    <rdf:RDF>
      <cc:Work
         rdf:about="">
        <dc:format>image/svg+xml</dc:format>
        <dc:type
           rdf:resource="http://purl.org/dc/dcmitype/StillImage" />
        <dc:title></dc:title>
      </cc:Work>
    </rdf:RDF>
  </metadata>
  <g
     inkscape:label="Layer 1"
     inkscape:groupmode="layer"
     id="layer1"
     style="display:none">
    <path
       style="fill:none;stroke:#260062;stroke-width:7.165;stroke-linecap:round;stroke-linejoin:miter;stroke-miterlimit:4;stroke-dasharray:none;stroke-opacity:1;paint-order:normal"
       d="M 21.166667,67.185267 H 79.941963"
       id="path2305" />
    <path
       id="path2315"
       d="M 21.166667,87.879463 H 79.941963"
       style="fill:none;stroke:#260062;stroke-width:7.165;stroke-linecap:round;stroke-linejoin:miter;stroke-miterlimit:4;stroke-dasharray:none;stroke-opacity:1;paint-order:normal" />
    <path
       style="fill:none;stroke:#260062;stroke-width:7.765;stroke-linecap:round;stroke-linejoin:miter;stroke-miterlimit:4;stroke-dasharray:none;stroke-opacity:1"
       d="M 31.377726,52.117558 H 69.730904"
       id="path2317" />
    <path
       style="fill:#260062;fill-opacity:1;stroke:#260062;stroke-width:7.165;stroke-linecap:round;stroke-linejoin:round;stroke-miterlimit:4;stroke-dasharray:none;stroke-opacity:1"
       d="m 21.166667,67.185267 18.72331,-15.067709 h 9.955789 l 1.069078,35.761903 H 21.166667 V 67.185267"
       id="path2319" />
    <path
       id="path2321"
       d="M 79.941963,67.185267 61.218651,52.117558 H 51.262862 L 50.193784,87.879461 H 79.941963 V 67.185267"
       style="fill:#260062;fill-opacity:1;stroke:#260062;stroke-width:7.165;stroke-linecap:round;stroke-linejoin:round;stroke-miterlimit:4;stroke-dasharray:none;stroke-opacity:1" />
  </g>
  <g
     inkscape:groupmode="layer"
     id="layer9"
     inkscape:label="Layer 3" />
  <g
     inkscape:groupmode="layer"
     id="layer8"
     inkscape:label="Layer 2">
    <path
       id="path2326"
       style="fill:#260062;fill-opacity:1;stroke:#260062;stroke-opacity:1;paint-order:normal;filter:url(#filter2383)"
       d="m 282.82031,35.505859 a 146.07142,154.28572 0 0 0 -134.24804,153.779301 146.07142,154.28572 0 0 0 0.93164,17.40234 158.34142,172.73608 0 0 1 0,-0.10352 158.34142,172.73608 0 0 1 -0.002,-0.51367 158.34142,172.73608 0 0 1 0.004,-1.12695 158.34142,172.73608 0 0 1 0.01,-1.12891 158.34142,172.73608 0 0 1 0.0176,-1.1289 158.34142,172.73608 0 0 1 0.0234,-1.12696 158.34142,172.73608 0 0 1 0.0312,-1.1289 158.34142,172.73608 0 0 1 0.0371,-1.12696 158.34142,172.73608 0 0 1 0.043,-1.12695 158.34142,172.73608 0 0 1 0.0508,-1.12695 158.34142,172.73608 0 0 1 0.0566,-1.12695 158.34142,172.73608 0 0 1 0.0645,-1.12696 158.34142,172.73608 0 0 1 0.0723,-1.125 158.34142,172.73608 0 0 1 0.0762,-1.125 158.34142,172.73608 0 0 1 0.084,-1.125 158.34142,172.73608 0 0 1 0.0918,-1.125 158.34142,172.73608 0 0 1 0.0977,-1.12304 158.34142,172.73608 0 0 1 0.10547,-1.12305 158.34142,172.73608 0 0 1 0.11133,-1.1211 158.34142,172.73608 0 0 1 0.11718,-1.12109 158.34142,172.73608 0 0 1 0.125,-1.12109 158.34142,172.73608 0 0 1 0.13086,-1.11914 158.34142,172.73608 0 0 1 0.13867,-1.11719 158.34142,172.73608 0 0 1 0.14454,-1.11719 158.34142,172.73608 0 0 1 0.15234,-1.11719 158.34142,172.73608 0 0 1 0.1582,-1.11523 158.34142,172.73608 0 0 1 0.16407,-1.11328 158.34142,172.73608 0 0 1 0.17187,-1.11328 158.34142,172.73608 0 0 1 0.17773,-1.11133 158.34142,172.73608 0 0 1 0.18555,-1.11133 158.34142,172.73608 0 0 1 0.19141,-1.10742 158.34142,172.73608 0 0 1 0.19726,-1.10742 158.34142,172.73608 0 0 1 0.20508,-1.10743 158.34142,172.73608 0 0 1 0.21094,-1.10351 158.34142,172.73608 0 0 1 0.21875,-1.10352 158.34142,172.73608 0 0 1 0.22461,-1.10156 158.34142,172.73608 0 0 1 0.23047,-1.09961 158.34142,172.73608 0 0 1 0.23828,-1.09765 158.34142,172.73608 0 0 1 0.24414,-1.09766 158.34142,172.73608 0 0 1 0.25,-1.09375 158.34142,172.73608 0 0 1 0.25781,-1.09375 158.34142,172.73608 0 0 1 0.26367,-1.0918 158.34142,172.73608 0 0 1 0.27149,-1.08789 158.34142,172.73608 0 0 1 0.27734,-1.08789 158.34142,172.73608 0 0 1 0.2832,-1.08398 158.34142,172.73608 0 0 1 0.28907,-1.08399 158.34142,172.73608 0 0 1 0.29687,-1.08203 158.34142,172.73608 0 0 1 0.30274,-1.07812 158.34142,172.73608 0 0 1 0.31054,-1.07618 158.34142,172.73608 0 0 1 0.31446,-1.07421 158.34142,172.73608 0 0 1 0.32226,-1.07227 158.34142,172.73608 0 0 1 0.33008,-1.07031 158.34142,172.73608 0 0 1 0.33398,-1.06836 158.34142,172.73608 0 0 1 0.3418,-1.06446 158.34142,172.73608 0 0 1 0.34766,-1.0625 158.34142,172.73608 0 0 1 0.35351,-1.06054 158.34142,172.73608 0 0 1 0.36133,-1.0586 158.34142,172.73608 0 0 1 0.36719,-1.05468 158.34142,172.73608 0 0 1 0.37305,-1.05274 158.34142,172.73608 0 0 1 0.3789,-1.04883 158.34142,172.73608 0 0 1 0.38672,-1.04687 158.34142,172.73608 0 0 1 0.39063,-1.04492 158.34142,172.73608 0 0 1 0.39843,-1.04102 158.34142,172.73608 0 0 1 0.4043,-1.03906 158.34142,172.73608 0 0 1 0.41211,-1.03516 158.34142,172.73608 0 0 1 0.41601,-1.0332 158.34142,172.73608 0 0 1 0.42383,-1.0293 158.34142,172.73608 0 0 1 0.42969,-1.02734 158.34142,172.73608 0 0 1 0.43359,-1.02344 158.34142,172.73608 0 0 1 0.44141,-1.01953 158.34142,172.73608 0 0 1 0.44922,-1.01758 158.34142,172.73608 0 0 1 0.45312,-1.01367 158.34142,172.73608 0 0 1 0.45899,-1.01172 158.34142,172.73608 0 0 1 0.4668,-1.00781 158.34142,172.73608 0 0 1 0.4707,-1.00391 158.34142,172.73608 0 0 1 0.47851,-1 158.34142,172.73608 0 0 1 0.48438,-0.99804 158.34142,172.73608 0 0 1 0.48828,-0.99414 158.34142,172.73608 0 0 1 0.49609,-0.99024 158.34142,172.73608 0 0 1 0.50196,-0.98633 158.34142,172.73608 0 0 1 0.50781,-0.98437 158.34142,172.73608 0 0 1 0.51367,-0.97852 158.34142,172.73608 0 0 1 0.51953,-0.97656 158.34142,172.73608 0 0 1 0.52344,-0.97266 158.34142,172.73608 0 0 1 0.53125,-0.96875 158.34142,172.73608 0 0 1 0.53711,-0.96289 158.34142,172.73608 0 0 1 0.54297,-0.96093 158.34142,172.73608 0 0 1 0.54687,-0.95704 158.34142,172.73608 0 0 1 0.55469,-0.95312 158.34142,172.73608 0 0 1 0.55859,-0.94922 158.34142,172.73608 0 0 1 0.56641,-0.94531 158.34142,172.73608 0 0 1 0.57031,-0.94141 158.34142,172.73608 0 0 1 0.57618,-0.9375 158.34142,172.73608 0 0 1 0.58203,-0.93164 158.34142,172.73608 0 0 1 0.58789,-0.92969 158.34142,172.73608 0 0 1 0.59375,-0.92382 158.34142,172.73608 0 0 1 0.59961,-0.91993 158.34142,172.73608 0 0 1 0.60351,-0.91601 158.34142,172.73608 0 0 1 0.60938,-0.91211 158.34142,172.73608 0 0 1 0.61523,-0.90625 158.34142,172.73608 0 0 1 0.6211,-0.90234 158.34142,172.73608 0 0 1 0.625,-0.89844 158.34142,172.73608 0 0 1 0.63281,-0.89453 158.34142,172.73608 0 0 1 0.63672,-0.888676 158.34142,172.73608 0 0 1 0.64062,-0.884765 158.34142,172.73608 0 0 1 0.64844,-0.88086 158.34142,172.73608 0 0 1 0.65234,-0.875 158.34142,172.73608 0 0 1 0.65821,-0.871093 158.34142,172.73608 0 0 1 0.66211,-0.865235 158.34142,172.73608 0 0 1 0.66796,-0.863281 158.34142,172.73608 0 0 1 0.67383,-0.855469 158.34142,172.73608 0 0 1 0.67774,-0.851562 158.34142,172.73608 0 0 1 0.68359,-0.847657 158.34142,172.73608 0 0 1 0.68945,-0.841796 158.34142,172.73608 0 0 1 0.69336,-0.837891 158.34142,172.73608 0 0 1 0.69922,-0.832031 158.34142,172.73608 0 0 1 0.70313,-0.826172 158.34142,172.73608 0 0 1 0.70703,-0.822266 158.34142,172.73608 0 0 1 0.71484,-0.818359 158.34142,172.73608 0 0 1 0.7168,-0.810547 158.34142,172.73608 0 0 1 0.72461,-0.806641 158.34142,172.73608 0 0 1 0.72656,-0.802734 158.34142,172.73608 0 0 1 0.73438,-0.796875 158.34142,172.73608 0 0 1 0.73632,-0.791016 158.34142,172.73608 0 0 1 0.74219,-0.785156 158.34142,172.73608 0 0 1 0.74805,-0.78125 158.34142,172.73608 0 0 1 0.75,-0.77539 158.34142,172.73608 0 0 1 0.75781,-0.769532 158.34142,172.73608 0 0 1 0.75977,-0.765625 158.34142,172.73608 0 0 1 0.76562,-0.757812 158.34142,172.73608 0 0 1 0.76953,-0.753907 158.34142,172.73608 0 0 1 0.77539,-0.748046 158.34142,172.73608 0 0 1 0.77735,-0.742188 158.34142,172.73608 0 0 1 0.7832,-0.738281 158.34142,172.73608 0 0 1 0.78906,-0.730469 158.34142,172.73608 0 0 1 0.79102,-0.726562 158.34142,172.73608 0 0 1 0.79687,-0.720704 158.34142,172.73608 0 0 1 0.80078,-0.71289 158.34142,172.73608 0 0 1 0.80469,-0.708984 158.34142,172.73608 0 0 1 0.8086,-0.703126 158.34142,172.73608 0 0 1 0.81445,-0.697265 158.34142,172.73608 0 0 1 0.81641,-0.691406 158.34142,172.73608 0 0 1 0.82226,-0.685547 158.34142,172.73608 0 0 1 0.82617,-0.679688 158.34142,172.73608 0 0 1 0.82813,-0.673828 158.34142,172.73608 0 0 1 0.83398,-0.667969 158.34142,172.73608 0 0 1 0.83789,-0.662109 158.34142,172.73608 0 0 1 0.8418,-0.65625 158.34142,172.73608 0 0 1 0.8457,-0.650391 158.34142,172.73608 0 0 1 0.84961,-0.642578 158.34142,172.73608 0 0 1 0.85352,-0.638672 158.34142,172.73608 0 0 1 0.85742,-0.630859 158.34142,172.73608 0 0 1 0.85937,-0.626953 158.34142,172.73608 0 0 1 0.86524,-0.619141 158.34142,172.73608 0 0 1 0.86914,-0.613281 158.34142,172.73608 0 0 1 0.87109,-0.607422 158.34142,172.73608 0 0 1 0.875,-0.599609 158.34142,172.73608 0 0 1 0.88086,-0.595703 158.34142,172.73608 0 0 1 0.88086,-0.587891 158.34142,172.73608 0 0 1 0.88672,-0.582031 158.34142,172.73608 0 0 1 0.89063,-0.576172 158.34142,172.73608 0 0 1 0.89257,-0.568359 158.34142,172.73608 0 0 1 0.89649,-0.5625 158.34142,172.73608 0 0 1 0.90039,-0.556641 158.34142,172.73608 0 0 1 0.90234,-0.550781 158.34142,172.73608 0 0 1 0.90625,-0.542969 158.34142,172.73608 0 0 1 0.91016,-0.537109 158.34142,172.73608 0 0 1 0.91211,-0.53125 158.34142,172.73608 0 0 1 0.91601,-0.523438 158.34142,172.73608 0 0 1 0.91993,-0.517578 158.34142,172.73608 0 0 1 0.92187,-0.511719 158.34142,172.73608 0 0 1 0.92578,-0.503906 158.34142,172.73608 0 0 1 0.92774,-0.498047 158.34142,172.73608 0 0 1 0.93164,-0.492188 158.34142,172.73608 0 0 1 0.93359,-0.484374 158.34142,172.73608 0 0 1 0.9375,-0.478516 158.34142,172.73608 0 0 1 0.93945,-0.470703 158.34142,172.73608 0 0 1 0.94336,-0.464844 158.34142,172.73608 0 0 1 0.94532,-0.457031 158.34142,172.73608 0 0 1 0.94726,-0.451172 158.34142,172.73608 0 0 1 0.95117,-0.445313 158.34142,172.73608 0 0 1 0.95313,-0.4375 158.34142,172.73608 0 0 1 0.95703,-0.429687 158.34142,172.73608 0 0 1 0.95703,-0.423828 158.34142,172.73608 0 0 1 0.96094,-0.417969 158.34142,172.73608 0 0 1 0.96484,-0.410156 158.34142,172.73608 0 0 1 0.96485,-0.402344 158.34142,172.73608 0 0 1 0.96875,-0.396484 158.34142,172.73608 0 0 1 0.9707,-0.390625 158.34142,172.73608 0 0 1 0.97461,-0.382813 158.34142,172.73608 0 0 1 0.97461,-0.375 158.34142,172.73608 0 0 1 0.97851,-0.369141 158.34142,172.73608 0 0 1 0.97852,-0.361328 158.34142,172.73608 0 0 1 0.98242,-0.355468 158.34142,172.73608 0 0 1 0.98438,-0.347657 158.34142,172.73608 0 0 1 0.98632,-0.339843 158.34142,172.73608 0 0 1 0.98828,-0.333985 158.34142,172.73608 0 0 1 0.98829,-0.326172 158.34142,172.73608 0 0 1 0.99218,-0.320312 158.34142,172.73608 0 0 1 0.99414,-0.3125 158.34142,172.73608 0 0 1 0.9961,-0.304688 158.34142,172.73608 0 0 1 0.99805,-0.298828 158.34142,172.73608 0 0 1 1,-0.291015 158.34142,172.73608 0 0 1 1,-0.285157 158.34142,172.73608 0 0 1 1.0039,-0.27539 158.34142,172.73608 0 0 1 1.00391,-0.269531 158.34142,172.73608 0 0 1 1.00586,-0.263672 158.34142,172.73608 0 0 1 1.00781,-0.25586 158.34142,172.73608 0 0 1 1.00781,-0.248047 158.34142,172.73608 0 0 1 1.01172,-0.240234 158.34142,172.73608 0 0 1 1.01172,-0.234375 158.34142,172.73608 0 0 1 1.01367,-0.226562 158.34142,172.73608 0 0 1 1.01367,-0.21875 158.34142,172.73608 0 0 1 1.01563,-0.212891 158.34142,172.73608 0 0 1 1.01758,-0.205078 158.34142,172.73608 0 0 1 1.01953,-0.197266 158.34142,172.73608 0 0 1 1.01953,-0.191406 158.34142,172.73608 0 0 1 1.01953,-0.181641 158.34142,172.73608 0 0 1 0.16406,-0.0293 z"
       transform="matrix(0.26458333,0,0,0.26458333,-19.014541,-6.331264)" />
    <path
       style="fill:none;stroke:#000000;stroke-width:0;stroke-linecap:square;stroke-linejoin:round;stroke-miterlimit:4;stroke-dasharray:none;stroke-opacity:1"
       d="M 75.597185,10.364684 C 60.054447,10.664379 51.991683,16.553072 52.058503,16.419438 52.125321,16.285803 32.767245,29.674908 41.988043,37.024819 50.142628,13.98697 71.451036,11.104902 71.451036,11.104902 Z"
       id="path2387"
       sodipodi:nodetypes="csccc" />
    <path
       style="fill:none;stroke:#000000;stroke-width:0;stroke-linecap:square;stroke-linejoin:miter;stroke-miterlimit:4;stroke-dasharray:none;stroke-opacity:1"
       d="M 44.126201,37.960264 C 54.549712,41.367949 56.587897,30.922323 61.23145,23.794979 66.658198,15.465515 75.324818,10.320623 75.396734,10.565137"
       id="path2395"
       sodipodi:nodetypes="csc" />
    <path
       style="fill:none;stroke:#000000;stroke-width:0;stroke-linecap:butt;stroke-linejoin:miter;stroke-miterlimit:4;stroke-dasharray:none;stroke-opacity:1"
       d="M 44.126201,37.960264 C 54.914579,12.616807 75.396736,10.565137 75.396736,10.565137"
       id="path2397"
       sodipodi:nodetypes="cc" />
    <path
       id="path2490"
       style="fill:#260062;fill-opacity:1;stroke:none;stroke-width:0.264583;stroke-opacity:1;paint-order:normal"
       d="m 54.806868,3.3388943 c -0.246542,-0.00152 -1.743141,0.3632845 -2.907316,0.7090005 -4.221985,1.2537691 -8.683037,3.5824951 -12.424563,6.4859072 -5.322991,4.130627 -9.688991,9.522397 -13.092742,16.167487 -0.724858,1.415132 -1.755516,3.641056 -1.707904,3.688665 0.008,0.008 0.20542,0.06967 0.438732,0.137459 0.617376,0.179382 1.73532,0.396922 2.298052,0.447 0.55473,0.04937 1.541833,0.02575 2.041734,-0.04857 1.063646,-0.158139 2.122873,-0.560519 3.029788,-1.15135 1.170731,-0.762698 2.325312,-1.98043 3.406511,-3.593063 0.329816,-0.491924 0.604745,-0.947772 0.903306,-1.453658 l -4.943885,0.362252 5.383651,-1.122413 c 0.362434,-0.647274 0.749335,-1.358072 1.368391,-2.534211 0.06621,-0.125801 0.08285,-0.150526 0.145727,-0.26975 l -5.215702,0.04237 5.667354,-0.879015 c 1.202772,-2.258965 1.858573,-3.41603 2.652551,-4.587318 1.431554,-2.111865 2.948334,-3.920367 5.013648,-5.9774117 2.291643,-2.2824665 4.720791,-4.2676789 7.234184,-5.912816 0.428765,-0.2806491 0.747464,-0.510323 0.708483,-0.510563 z" />
    <path
       id="path2495"
       style="fill:#260062;fill-opacity:1;stroke:none;stroke-width:0.264583;stroke-opacity:1;paint-order:normal"
       d="m 54.798084,3.1662949 c 0.07085,-0.026976 -0.189457,-0.010626 -0.712099,0.023254 -6.653789,0.431316 -12.695201,1.8899457 -17.789612,4.2943115 -1.263851,0.5964888 -2.76452,1.4338895 -3.492294,1.9492342 -0.915138,0.6480234 -2.355368,1.7800264 -3.36827,2.6473824 -3.204782,2.744278 -5.521219,5.39128 -6.968567,7.810892 l -0.309025,4.305681 -0.418063,-3.037541 c -0.320413,0.671388 -0.583922,1.326801 -0.740524,1.948201 -0.174773,0.69346 -0.198998,0.902746 -0.198953,1.727028 4e-5,0.679556 0.0093,0.819664 0.07338,1.11311 0.267116,1.222447 0.924838,2.324934 1.91048,3.201872 0.157202,0.139866 0.289655,0.249295 0.294555,0.243395 0.0049,-0.0059 0.07993,-0.20433 0.166399,-0.440798 0.478682,-1.309058 1.175925,-2.92811 1.837614,-4.266407 2.715977,-5.493199 6.479571,-10.105998 11.222053,-13.7542 4.186573,-3.2205619 9.25182,-5.6874999 14.226005,-6.9292908 0.785323,-0.196053 1.456341,-0.3305918 2.993099,-0.5989298 0.800997,-0.1398654 1.202976,-0.2102184 1.273823,-0.2371948 z" />
  </g>
  <g
     inkscape:groupmode="layer"
     id="layer10"
     inkscape:label="Layer 4">
    <path
       style="fill:none;stroke:#260062;stroke-width:2;stroke-linecap:round;stroke-linejoin:miter;stroke-miterlimit:4;stroke-dasharray:none;stroke-opacity:1"
       d="M 8.7636851,53.79731 H 34.031394"
       id="path2417"
       sodipodi:nodetypes="cc" />
    <path
       style="fill:none;stroke:#260062;stroke-width:2;stroke-linecap:round;stroke-linejoin:miter;stroke-miterlimit:4;stroke-dasharray:none;stroke-opacity:1"
       d="M 14.915248,35.276477 H 27.879832"
       id="path2425"
       sodipodi:nodetypes="cc" />
    <path
       style="fill:none;stroke:#260062;stroke-width:2;stroke-linecap:butt;stroke-linejoin:miter;stroke-miterlimit:4;stroke-dasharray:none;stroke-opacity:1"
       d="m 8.7636841,53.79731 c 0,-13.295312 7.8052099,-15.544271 7.8052099,-15.544271 v -2.976562"
       id="path2427"
       sodipodi:nodetypes="ccc" />
    <path
       id="path2429"
       d="m 34.031394,53.79731 c 0,-13.295312 -7.805209,-15.544271 -7.805209,-15.544271 v -2.976562"
       style="fill:none;stroke:#260062;stroke-width:2;stroke-linecap:butt;stroke-linejoin:miter;stroke-miterlimit:4;stroke-dasharray:none;stroke-opacity:1"
       sodipodi:nodetypes="ccc" />
    <path
       style="opacity:1;fill:url(#linearGradient2507);fill-opacity:1;stroke:url(#linearGradient4679);stroke-width:0.74849;stroke-linecap:square;stroke-miterlimit:4;stroke-dasharray:none;stroke-opacity:1;paint-order:normal"
       d="m 11.157889,51.411985 c 1.54e-4,-0.517583 0.258411,-2.190821 0.492398,-3.190229 0.266052,-1.136357 0.746466,-2.438216 1.241687,-3.364819 0.278188,-0.520514 0.788426,-1.286508 1.002355,-1.50478 l 0.120978,-0.123436 3.260172,0.0115 3.260172,0.0115 0.02721,0.268651 0.02722,0.268651 0.0079,-0.279844 0.0079,-0.279846 h 4.136605 4.136601 l 0.213696,0.265855 c 0.856282,1.065289 1.614567,2.729232 2.081924,4.568471 0.249129,0.980432 0.615461,3.376288 0.535242,3.500548 -0.01352,0.02095 -4.643263,0.03808 -10.288315,0.03808 h -10.26373 l 5.6e-5,-0.190295 z"
       id="path2440" />
  </g>
</svg>
