<?xml version="1.0" encoding="UTF-8" standalone="no"?>
<svg
   xmlns:dc="http://purl.org/dc/elements/1.1/"
   xmlns:cc="http://creativecommons.org/ns#"
   xmlns:rdf="http://www.w3.org/1999/02/22-rdf-syntax-ns#"
   xmlns:svg="http://www.w3.org/2000/svg"
   xmlns="http://www.w3.org/2000/svg"
   xmlns:xlink="http://www.w3.org/1999/xlink"
   xmlns:sodipodi="http://sodipodi.sourceforge.net/DTD/sodipodi-0.dtd"
   xmlns:inkscape="http://www.inkscape.org/namespaces/inkscape"
   width="100mm"
   height="100mm"
   viewBox="0 0 100 100"
   version="1.1"
   id="svg2005"
   inkscape:version="1.0 (4035a4fb49, 2020-05-01)"
   sodipodi:docname="me.svg">
  <defs
     id="defs1999">
    <linearGradient
       id="linearGradient3213"
       inkscape:collect="always">
      <stop
         id="stop3209"
         offset="0"
         style="stop-color:#1d0099;stop-opacity:1;" />
      <stop
         id="stop3211"
         offset="1"
         style="stop-color:#260062;stop-opacity:1" />
    </linearGradient>
    <linearGradient
       gradientUnits="userSpaceOnUse"
       y2="187.13657"
       x2="364.25509"
       y1="187.13657"
       x1="13.698038"
       id="linearGradient3215"
       xlink:href="#linearGradient3213"
       inkscape:collect="always" />
  </defs>
  <sodipodi:namedview
     id="base"
     pagecolor="#ffffff"
     bordercolor="#666666"
     borderopacity="1.0"
     inkscape:pageopacity="0.0"
     inkscape:pageshadow="2"
     inkscape:zoom="1.4"
     inkscape:cx="170.00987"
     inkscape:cy="201.57124"
     inkscape:document-units="mm"
     inkscape:current-layer="layer1"
     inkscape:document-rotation="0"
     showgrid="false"
     inkscape:object-paths="true"
     inkscape:window-width="1920"
     inkscape:window-height="1001"
     inkscape:window-x="-9"
     inkscape:window-y="-9"
     inkscape:window-maximized="1" />
  <metadata
     id="metadata2002">
    <rdf:RDF>
      <cc:Work
         rdf:about="">
        <dc:format>image/svg+xml</dc:format>
        <dc:type
           rdf:resource="http://purl.org/dc/dcmitype/StillImage" />
        <dc:title />
      </cc:Work>
    </rdf:RDF>
  </metadata>
  <g
     inkscape:label="Layer 1"
     inkscape:groupmode="layer"
     id="layer1">
    <path
       transform="scale(0.26458333)"
       d="M 188.50391 24.988281 A 94.488189 94.488189 0 0 0 94.488281 119.47656 A 94.488189 94.488189 0 0 0 135.79883 197.57812 A 160.10918 135.1079 0 0 0 28.867188 325.01562 A 160.10918 135.1079 0 0 0 31.470703 349.28516 L 346.48242 349.28516 A 160.10918 135.1079 0 0 0 349.08594 325.01562 A 160.10918 135.1079 0 0 0 242.15234 197.57812 A 94.488189 94.488189 0 0 0 283.46484 119.47656 A 94.488189 94.488189 0 0 0 188.97656 24.988281 A 94.488189 94.488189 0 0 0 188.50391 24.988281 z "
       style="fill:url(#linearGradient3215);stroke:none;stroke-width:30.3383;stroke-linecap:round;stroke-linejoin:round;stroke-opacity:1"
       id="path2576" />
  </g>
</svg>
