<?xml version="1.0" encoding="UTF-8" standalone="no"?>
<svg
   xmlns:dc="http://purl.org/dc/elements/1.1/"
   xmlns:cc="http://creativecommons.org/ns#"
   xmlns:rdf="http://www.w3.org/1999/02/22-rdf-syntax-ns#"
   xmlns:svg="http://www.w3.org/2000/svg"
   xmlns="http://www.w3.org/2000/svg"
   xmlns:xlink="http://www.w3.org/1999/xlink"
   xmlns:sodipodi="http://sodipodi.sourceforge.net/DTD/sodipodi-0.dtd"
   xmlns:inkscape="http://www.inkscape.org/namespaces/inkscape"
   sodipodi:docname="notif.svg"
   inkscape:version="1.0 (4035a4fb49, 2020-05-01)"
   id="svg8"
   version="1.1"
   viewBox="0 0 100 100"
   height="100mm"
   width="100mm">
  <defs
     id="defs2">
    <linearGradient
       id="linearGradient855"
       inkscape:collect="always">
      <stop
         id="stop851"
         offset="0"
         style="stop-color:#1d0099;stop-opacity:1" />
      <stop
         id="stop853"
         offset="1"
         style="stop-color:#260062;stop-opacity:1" />
    </linearGradient>
    <linearGradient
       gradientUnits="userSpaceOnUse"
       y2="189.63084"
       x2="362.21926"
       y1="189.63084"
       x1="15.694828"
       id="linearGradient857"
       xlink:href="#linearGradient855"
       inkscape:collect="always" />
    <linearGradient
       gradientUnits="userSpaceOnUse"
       y2="189.63084"
       x2="362.21927"
       y1="189.63084"
       x1="15.694828"
       id="linearGradient865"
       xlink:href="#linearGradient855"
       inkscape:collect="always" />
  </defs>
  <sodipodi:namedview
     inkscape:window-maximized="1"
     inkscape:window-y="-9"
     inkscape:window-x="-9"
     inkscape:window-height="1001"
     inkscape:window-width="1920"
     inkscape:object-paths="true"
     showgrid="false"
     inkscape:document-rotation="0"
     inkscape:current-layer="layer1"
     inkscape:document-units="mm"
     inkscape:cy="-167.77387"
     inkscape:cx="-3824.6273"
     inkscape:zoom="0.12374369"
     inkscape:pageshadow="2"
     inkscape:pageopacity="0.0"
     borderopacity="1.0"
     bordercolor="#666666"
     pagecolor="#ffffff"
     id="base" />
  <metadata
     id="metadata5">
    <rdf:RDF>
      <cc:Work
         rdf:about="">
        <dc:format>image/svg+xml</dc:format>
        <dc:type
           rdf:resource="http://purl.org/dc/dcmitype/StillImage" />
        <dc:title></dc:title>
      </cc:Work>
    </rdf:RDF>
  </metadata>
  <g
     id="layer1"
     inkscape:groupmode="layer"
     inkscape:label="Layer 1">
    <path
       transform="scale(0.26458333)"
       d="M 188.89844 20.708984 A 26.011428 38.638337 0 0 0 162.96484 59.345703 A 26.011428 38.638337 0 0 0 163.46289 66.859375 A 94.488187 94.488187 0 0 0 94.546875 154.50391 C 94.546108 154.54327 94.543752 154.58175 94.542969 154.62109 A 94.488187 94.488187 0 0 0 94.511719 155.72852 A 94.488187 94.488187 0 0 0 94.511719 155.78125 C 91.935908 263.58406 30.810547 319.71289 30.810547 319.71289 L 173.52539 319.2793 A 22.677165 22.677165 0 0 0 166.29883 335.875 A 22.677165 22.677165 0 0 0 188.97656 358.55273 A 22.677165 22.677165 0 0 0 211.6543 335.875 A 22.677165 22.677165 0 0 0 204.32812 319.18555 L 347.10352 318.75195 C 347.10352 318.75195 286.71235 263.29381 283.45703 156.75586 A 94.488187 94.488187 0 0 0 283.36719 153.55078 A 94.488187 94.488187 0 0 0 283.36719 153.54297 A 94.488187 94.488187 0 0 0 214.49219 66.857422 A 26.011428 38.638337 0 0 0 214.98828 59.345703 A 26.011428 38.638337 0 0 0 188.97656 20.708984 A 26.011428 38.638337 0 0 0 188.89844 20.708984 z "
       style="fill:url(#linearGradient857);fill-opacity:1;stroke:url(#linearGradient865);stroke-width:30.2362;stroke-linecap:round;stroke-linejoin:round;stroke-miterlimit:4;stroke-dasharray:none;stroke-opacity:1"
       id="path846" />
  </g>
</svg>
