<?xml version="1.0" encoding="UTF-8" standalone="no"?>
<svg
   xmlns:dc="http://purl.org/dc/elements/1.1/"
   xmlns:cc="http://creativecommons.org/ns#"
   xmlns:rdf="http://www.w3.org/1999/02/22-rdf-syntax-ns#"
   xmlns:svg="http://www.w3.org/2000/svg"
   xmlns="http://www.w3.org/2000/svg"
   xmlns:sodipodi="http://sodipodi.sourceforge.net/DTD/sodipodi-0.dtd"
   xmlns:inkscape="http://www.inkscape.org/namespaces/inkscape"
   sodipodi:docname="notif_dim.svg"
   inkscape:version="1.0 (4035a4fb49, 2020-05-01)"
   id="svg8"
   version="1.1"
   viewBox="0 0 100 100"
   height="100mm"
   width="100mm">
  <defs
     id="defs2" />
  <sodipodi:namedview
     inkscape:window-maximized="1"
     inkscape:window-y="-9"
     inkscape:window-x="-9"
     inkscape:window-height="1001"
     inkscape:window-width="1920"
     inkscape:object-paths="true"
     showgrid="false"
     inkscape:document-rotation="0"
     inkscape:current-layer="layer1"
     inkscape:document-units="mm"
     inkscape:cy="190.25044"
     inkscape:cx="-95.259199"
     inkscape:zoom="0.98994949"
     inkscape:pageshadow="2"
     inkscape:pageopacity="0.0"
     borderopacity="1.0"
     bordercolor="#666666"
     pagecolor="#ffffff"
     id="base" />
  <metadata
     id="metadata5">
    <rdf:RDF>
      <cc:Work
         rdf:about="">
        <dc:format>image/svg+xml</dc:format>
        <dc:type
           rdf:resource="http://purl.org/dc/dcmitype/StillImage" />
        <dc:title></dc:title>
      </cc:Work>
    </rdf:RDF>
  </metadata>
  <g
     id="layer1"
     inkscape:groupmode="layer"
     inkscape:label="Layer 1">
    <ellipse
       ry="10.22306"
       rx="6.8821902"
       cy="15.702085"
       cx="50"
       id="path846"
       style="fill:#ffffff;fill-opacity:1;stroke:#adadc2;stroke-width:7.99999;stroke-linecap:round;stroke-linejoin:round;stroke-miterlimit:4;stroke-dasharray:none;stroke-opacity:1" />
    <circle
       r="6"
       cy="88.867111"
       cx="50"
       id="path844"
       style="fill:#ffffff;fill-opacity:1;stroke:#adadc2;stroke-width:7.99999;stroke-linecap:round;stroke-linejoin:round;stroke-miterlimit:4;stroke-dasharray:none;stroke-opacity:1" />
    <path
       transform="scale(0.26458333)"
       d="M 188.97656 63.347656 A 94.488188 94.488188 0 0 0 94.546875 154.50391 C 94.546108 154.54327 94.543752 154.58175 94.542969 154.62109 A 94.488188 94.488188 0 0 0 94.511719 155.72852 A 94.488188 94.488188 0 0 0 94.511719 155.78125 C 91.935908 263.58406 30.810547 319.71289 30.810547 319.71289 L 347.10352 318.75195 C 347.10352 318.75195 286.71235 263.29381 283.45703 156.75586 A 94.488188 94.488188 0 0 0 283.36719 153.55078 A 94.488188 94.488188 0 0 0 283.36719 153.54297 A 94.488188 94.488188 0 0 0 188.97656 63.347656 z "
       style="fill:#ffffff;stroke:#adadc2;stroke-width:30.2362;stroke-linecap:round;stroke-linejoin:round;stroke-miterlimit:4;stroke-dasharray:none;stroke-opacity:1"
       id="path833" />
  </g>
</svg>
