<?xml version="1.0" encoding="UTF-8" standalone="no"?>
<svg
   xmlns:dc="http://purl.org/dc/elements/1.1/"
   xmlns:cc="http://creativecommons.org/ns#"
   xmlns:rdf="http://www.w3.org/1999/02/22-rdf-syntax-ns#"
   xmlns:svg="http://www.w3.org/2000/svg"
   xmlns="http://www.w3.org/2000/svg"
   xmlns:xlink="http://www.w3.org/1999/xlink"
   xmlns:sodipodi="http://sodipodi.sourceforge.net/DTD/sodipodi-0.dtd"
   xmlns:inkscape="http://www.inkscape.org/namespaces/inkscape"
   sodipodi:docname="thumbsup.svg"
   inkscape:version="1.0 (4035a4fb49, 2020-05-01)"
   id="svg8"
   version="1.1"
   viewBox="0 0 100 100"
   height="100mm"
   width="100mm">
  <defs
     id="defs2">
    <linearGradient
       id="linearGradient923"
       inkscape:collect="always">
      <stop
         id="stop919"
         offset="0"
         style="stop-color:#260062;stop-opacity:1" />
      <stop
         id="stop921"
         offset="1"
         style="stop-color:#1d0099;stop-opacity:1" />
    </linearGradient>
    <linearGradient
       gradientTransform="matrix(1,0,0,-1,0,99.977963)"
       gradientUnits="userSpaceOnUse"
       y2="26.342934"
       x2="15.510371"
       y1="59.771832"
       x1="70.820068"
       id="linearGradient925"
       xlink:href="#linearGradient923"
       inkscape:collect="always" />
  </defs>
  <sodipodi:namedview
     inkscape:window-maximized="1"
     inkscape:window-y="-9"
     inkscape:window-x="-9"
     inkscape:window-height="1001"
     inkscape:window-width="1920"
     inkscape:object-nodes="false"
     inkscape:object-paths="true"
     showgrid="false"
     inkscape:document-rotation="0"
     inkscape:current-layer="layer1"
     inkscape:document-units="mm"
     inkscape:cy="88.461978"
     inkscape:cx="-38.166035"
     inkscape:zoom="0.98994949"
     inkscape:pageshadow="2"
     inkscape:pageopacity="0.0"
     borderopacity="1.0"
     bordercolor="#666666"
     pagecolor="#ffffff"
     id="base" />
  <metadata
     id="metadata5">
    <rdf:RDF>
      <cc:Work
         rdf:about="">
        <dc:format>image/svg+xml</dc:format>
        <dc:type
           rdf:resource="http://purl.org/dc/dcmitype/StillImage" />
        <dc:title></dc:title>
      </cc:Work>
    </rdf:RDF>
  </metadata>
  <g
     id="layer1"
     inkscape:groupmode="layer"
     inkscape:label="Layer 1">
    <path
       d="m 50.770868,7.9825896 c -0.474638,-0.0074 -0.944329,0.04258 -1.402498,0.153479 -3.342843,0.505926 -5.889045,3.3778414 -5.889045,6.8662484 V 40.02818 c -0.268248,-0.0199 -0.538615,-0.03307 -0.812353,-0.03307 h -25.60619 c -5.718042,0 -10.3213306,4.42123 -10.3213306,9.913088 0,4.580223 3.203469,8.41297 7.5835136,9.560142 -1.584662,1.741591 -2.545581,4.021516 -2.545581,6.526731 0,4.580067 3.203183,8.413343 7.583,9.560658 -1.584463,1.741543 -2.544031,4.022212 -2.544031,6.527249 0,5.491856 4.603291,9.91309 10.321334,9.91309 h 22.187792 3.417879 18.848461 c 3.595505,0 6.490044,-2.894538 6.490044,-6.490043 v -28.16779 c 0,-1.062532 -0.254359,-2.063094 -0.703315,-2.946588 C 77.254223,54.04834 77.115113,53.705816 76.95635,53.365353 L 58.566776,13.928997 C 56.876023,10.303166 53.729492,8.0288346 50.770868,7.9825896 Z"
       style="fill:url(#linearGradient925);fill-opacity:1;stroke:#1d0099;stroke-width:7.99999;stroke-linecap:round;stroke-linejoin:round;stroke-miterlimit:4;stroke-dasharray:none;stroke-opacity:1"
       id="rect18" />
    <rect
       ry="1.6373878"
       y="53.647644"
       x="78.073158"
       height="38.348434"
       width="14.499372"
       id="rect897"
       style="fill:#260062;fill-opacity:1;stroke:#1d0099;stroke-width:7.99999;stroke-linecap:round;stroke-linejoin:miter;stroke-miterlimit:4;stroke-dasharray:none;stroke-opacity:1" />
    <path
       id="path927"
       style="fill:#ffffff;fill-opacity:0.533333;stroke:#1d0099;stroke-width:7.99999;stroke-linecap:round;stroke-linejoin:round;stroke-miterlimit:4;stroke-dasharray:none;stroke-opacity:1"
       d="m 50.770868,7.9825896 c -0.474638,-0.0074 -0.944329,0.04258 -1.402498,0.153479 -3.342843,0.505926 -5.889045,3.3778414 -5.889045,6.8662484 V 40.02818 c -0.268248,-0.0199 -0.538615,-0.03307 -0.812353,-0.03307 h -25.60619 c -5.718042,0 -10.3213306,4.42123 -10.3213306,9.913088 0,4.580223 3.203469,8.41297 7.5835136,9.560142 -1.584662,1.741591 -2.545581,4.021516 -2.545581,6.526731 0,4.580067 3.203183,8.413343 7.583,9.560658 -1.584463,1.741543 -2.544031,4.022212 -2.544031,6.527249 0,5.491856 4.603291,9.91309 10.321334,9.91309 h 22.187792 3.417879 18.848461 c 3.595505,0 6.490044,-2.894538 6.490044,-6.490043 v -28.16779 c 0,-1.062532 -0.254359,-2.063094 -0.703315,-2.946588 C 77.254223,54.04834 77.115113,53.705816 76.95635,53.365353 L 58.566776,13.928997 C 56.876023,10.303166 53.729492,8.0288346 50.770868,7.9825896 Z" />
    <rect
       style="fill:#ffffff;fill-opacity:0.533333;stroke:#1d0099;stroke-width:7.99999;stroke-linecap:round;stroke-linejoin:miter;stroke-miterlimit:4;stroke-dasharray:none;stroke-opacity:1"
       id="rect929"
       width="14.499372"
       height="38.348434"
       x="78.073158"
       y="53.647644"
       ry="1.6373878" />
  </g>
</svg>
