<?xml version="1.0" encoding="UTF-8" standalone="no"?>
<svg
   xmlns:dc="http://purl.org/dc/elements/1.1/"
   xmlns:cc="http://creativecommons.org/ns#"
   xmlns:rdf="http://www.w3.org/1999/02/22-rdf-syntax-ns#"
   xmlns:svg="http://www.w3.org/2000/svg"
   xmlns="http://www.w3.org/2000/svg"
   xmlns:sodipodi="http://sodipodi.sourceforge.net/DTD/sodipodi-0.dtd"
   xmlns:inkscape="http://www.inkscape.org/namespaces/inkscape"
   sodipodi:docname="useheart_gray.svg"
   inkscape:version="1.0 (4035a4fb49, 2020-05-01)"
   id="svg1984"
   version="1.1"
   viewBox="0 0 100 100"
   height="100mm"
   width="100mm">
  <defs
     id="defs1978">
    <inkscape:path-effect
       only_selected="false"
       apply_with_weight="true"
       apply_no_weight="true"
       helper_size="0"
       steps="2"
       weight="33.333333"
       lpeversion="1"
       is_visible="true"
       id="path-effect2563"
       effect="bspline" />
    <inkscape:path-effect
       effect="bspline"
       id="path-effect2559"
       is_visible="true"
       lpeversion="1"
       weight="33.333333"
       steps="2"
       helper_size="0"
       apply_no_weight="true"
       apply_with_weight="true"
       only_selected="false" />
    <inkscape:path-effect
       only_selected="false"
       apply_with_weight="true"
       apply_no_weight="true"
       helper_size="0"
       steps="2"
       weight="33.333333"
       lpeversion="1"
       is_visible="true"
       id="path-effect2555"
       effect="bspline" />
  </defs>
  <sodipodi:namedview
     inkscape:window-maximized="0"
     inkscape:window-y="0"
     inkscape:window-x="283"
     inkscape:window-height="1030"
     inkscape:window-width="1424"
     inkscape:object-paths="true"
     showgrid="false"
     inkscape:document-rotation="0"
     inkscape:current-layer="layer1"
     inkscape:document-units="mm"
     inkscape:cy="176.2515"
     inkscape:cx="190.2009"
     inkscape:zoom="1.4"
     inkscape:pageshadow="2"
     inkscape:pageopacity="0.0"
     borderopacity="1.0"
     bordercolor="#666666"
     pagecolor="#ffffff"
     id="base" />
  <metadata
     id="metadata1981">
    <rdf:RDF>
      <cc:Work
         rdf:about="">
        <dc:format>image/svg+xml</dc:format>
        <dc:type
           rdf:resource="http://purl.org/dc/dcmitype/StillImage" />
        <dc:title></dc:title>
      </cc:Work>
    </rdf:RDF>
  </metadata>
  <g
     id="layer1"
     inkscape:groupmode="layer"
     inkscape:label="Layer 1">
    <path
       d="M 27.69992,6.3197322 A 22.5,22.5 0 0 0 5.2,28.820168 22.5,22.5 0 0 0 5.242375,30.198893 c -0.00547,6.697509 0.5767951,12.652441 1.7094562,17.393256 2.0858562,8.730459 5.9337038,15.103292 13.7164758,22.719025 5.648032,5.526815 12.372822,10.800712 25.368476,19.895428 2.164791,1.514977 3.954266,2.75487 3.977018,2.75487 0.05971,-2e-6 5.343678,-3.695186 8.857858,-6.194454 C 79.70853,71.947952 88.167534,62.917263 91.999352,51.400702 93.843479,45.85816 94.611197,40.257455 94.779027,31.121837 l 0.01705,-0.93793 h -0.0026 a 22.5,22.5 0 0 0 0.0393,-1.330666 A 22.5,22.5 0 0 0 72.332852,6.3533219 22.5,22.5 0 0 0 50.018452,25.969179 22.5,22.5 0 0 0 27.69992,6.3197322 Z"
       style="fill:none;stroke:#adadc2;stroke-width:8.973;stroke-linecap:round;stroke-opacity:1;stroke-miterlimit:4;stroke-dasharray:none;stroke-linejoin:round;fill-opacity:1"
       id="path2547" />
  </g>
</svg>
